<?xml version="1.0" encoding="utf-8"?>
<!-- Generator: Adobe Illustrator 16.0.3, SVG Export Plug-In . SVG Version: 6.00 Build 0)  -->
<!DOCTYPE svg PUBLIC "-//W3C//DTD SVG 1.1//EN" "http://www.w3.org/Graphics/SVG/1.1/DTD/svg11.dtd">
<svg version="1.1" id="OBJECTS" xmlns="http://www.w3.org/2000/svg" xmlns:xlink="http://www.w3.org/1999/xlink" x="0px" y="0px"
	 width="94.8px" height="84.7px" viewBox="0 -0.3 94.8 84.7" enable-background="new 0 -0.3 94.8 84.7" xml:space="preserve">
<g>
	<rect fill="#EBFBF1" width="84" height="84"/>
	<circle fill="#3BD671" cx="74.1" cy="36.7" r="20.6"/>
	<g>
		<g>
			<g>
				<circle fill="#131A26" cx="193.6" cy="43.3" r="2"/>
			</g>
		</g>
		<g>
			<g>
				<path fill="#131A26" d="M193.6,35.5c-4.3,0-7.8,3.5-7.8,7.8c0,3.6,2.4,6.5,5.8,7.5v6.1c0,1.1,0.9,2,2,2c1.1,0,2-0.9,2-2v-6.1
					c3.3-0.9,5.8-3.8,5.8-7.5C201.4,39,197.9,35.5,193.6,35.5z M193.6,47.1c-2.1,0-3.8-1.7-3.8-3.8c0-2.1,1.7-3.8,3.8-3.8
					s3.8,1.7,3.8,3.8C197.4,45.4,195.7,47.1,193.6,47.1z"/>
			</g>
		</g>
		<g>
			<g>
				<path fill="#131A26" d="M216.7,24V8.6c0-12.8-10.3-23.1-23.1-23.1S170.5-4.2,170.5,8.6V24c-3.2,0-5.8,2.6-5.8,5.8v34.7
					c0,3.2,2.6,5.8,5.8,5.8h46.2c3.2,0,5.8-2.6,5.8-5.8V29.8C222.5,26.6,219.9,24,216.7,24z M218.7,31.7h-5.8c-1.1,0-2,0.9-2,2
					c0,1.1,0.9,2,2,2h5.8v23.1h-5.8c-1.1,0-2,0.9-2,2c0,1.1,0.9,2,2,2h5.8v2c0,1.1-0.9,2-2,2h-46.2c-1.1,0-2-0.9-2-2v-2h5.8
					c1.1,0,2-0.9,2-2c0-1.1-0.9-2-2-2h-5.8V35.5h5.8c1.1,0,2-0.9,2-2c0-1.1-0.9-2-2-2h-5.8v-2c0-1.1,0.9-2,2-2h36.6c1.1,0,2-0.9,2-2
					v-17c0-8.5-6.8-15.4-15.4-15.4c-8.5,0-15.5,6.8-15.5,15.4v9.6c0,1.1,0.9,2,2,2c1.1,0,2-0.9,2-2V8.6c0-6.4,5.2-11.6,11.6-11.6
					s11.6,5.2,11.6,11.6V24h-30.9V8.6c0-10.6,8.7-19.3,19.3-19.3c10.6,0,19.3,8.7,19.3,19.3v17.3c0,1.1,0.9,2,2,2h2c1.1,0,2,0.9,2,2
					v1.8H218.7z"/>
			</g>
		</g>
	</g>
	<g>
		<g>
			<path fill="#131A26" d="M48.2,37c-6,0-10.8,4.8-10.8,10.8v13.5c0,6,4.8,10.8,10.8,10.8c6,0,10.8-4.8,10.8-10.8V47.8
				C59.1,41.8,54.2,37,48.2,37z M51.3,61.3c0,1.7-1.4,3.1-3.1,3.1s-3.1-1.4-3.1-3.1V47.8c0-1.7,1.4-3.1,3.1-3.1s3.1,1.4,3.1,3.1
				V61.3z"/>
		</g>
	</g>
	<g>
		<g>
			<path fill="#131A26" d="M27.2,37c-2.1,0-3.9,1.7-3.9,3.9v9.8h-6.1v-9.8c0-2.1-1.7-3.9-3.9-3.9s-3.9,1.7-3.9,3.9v13.7
				c0,2.1,1.7,3.9,3.9,3.9h10v9.8c0,2.1,1.7,3.9,3.9,3.9c2.1,0,3.9-1.7,3.9-3.9V40.8C31,38.7,29.3,37,27.2,37z"/>
		</g>
	</g>
	<g>
		<g>
			<path fill="#131A26" d="M83.2,37c-2.1,0-3.9,1.7-3.9,3.9v9.8h-6.1v-9.8c0-2.1-1.7-3.9-3.9-3.9s-3.9,1.7-3.9,3.9v13.7
				c0,2.1,1.7,3.9,3.9,3.9h10v9.8c0,2.1,1.7,3.9,3.9,3.9c2.1,0,3.9-1.7,3.9-3.9V40.8C87.1,38.7,85.4,37,83.2,37z"/>
		</g>
	</g>
</g>
</svg>
